inDegrees=no
num_controls=7
num_derivatives=13
num_iterations=96
num_multipliers=7
num_parameters=0
num_slacks=7
num_states=26
objective=5.319577
objective_accelerations=0.700506
objective_balance=0.063698
objective_effort=0.500665
objective_height=3.991953
objective_ligament=0.062756
solver_duration=1092.228978
status=Solve_Succeeded
success=true
DataType=double
version=3
OpenSimVersion=4.4-2022-07-23-0e9fedc
endheader
time	/jointset/ground_pelvis/pelvis_tilt/value	/jointset/ground_pelvis/pelvis_tx/value	/jointset/ground_pelvis/pelvis_ty/value	/jointset/hip_l/hip_flexion_l/value	/jointset/hip_l/hip_adduction_l/value	/jointset/hip_l/hip_rotation_l/value	/jointset/back/lumbar_extension/value	/jointset/patellofemoral_l/patellar_flexion_l/value	/jointset/knee_l/knee_flexion_l/value	/jointset/knee_l/knee_adduction_l/value	/jointset/knee_l/knee_rotation_l/value	/jointset/ankle_l/ankle_angle_l/value	/jointset/subtalar_l/subtalar_angle_l/value	/jointset/ground_pelvis/pelvis_tilt/speed	/jointset/ground_pelvis/pelvis_tx/speed	/jointset/ground_pelvis/pelvis_ty/speed	/jointset/hip_l/hip_flexion_l/speed	/jointset/hip_l/hip_adduction_l/speed	/jointset/hip_l/hip_rotation_l/speed	/jointset/back/lumbar_extension/speed	/jointset/patellofemoral_l/patellar_flexion_l/speed	/jointset/knee_l/knee_flexion_l/speed	/jointset/knee_l/knee_adduction_l/speed	/jointset/knee_l/knee_rotation_l/speed	/jointset/ankle_l/ankle_angle_l/speed	/jointset/subtalar_l/subtalar_angle_l/speed	/forceset/tau_hip_flexion_l	/forceset/tau_hip_adduction_l	/forceset/tau_hip_rotation_l	/forceset/tau_knee_flexion_l	/forceset/tau_ankle_angle_l	/forceset/tau_subtalar_angle_l	/forceset/tau_lumbar_extension	lambda_cid13_p0	lambda_cid13_p1	lambda_cid13_p2	lambda_cid13_p3	lambda_cid13_p4	lambda_cid13_p5	lambda_cid14_p0	/jointset/ground_pelvis/pelvis_tilt/accel	/jointset/ground_pelvis/pelvis_tx/accel	/jointset/ground_pelvis/pelvis_ty/accel	/jointset/hip_l/hip_flexion_l/accel	/jointset/hip_l/hip_adduction_l/accel	/jointset/hip_l/hip_rotation_l/accel	/jointset/back/lumbar_extension/accel	/jointset/patellofemoral_l/patellar_flexion_l/accel	/jointset/knee_l/knee_flexion_l/accel	/jointset/knee_l/knee_adduction_l/accel	/jointset/knee_l/knee_rotation_l/accel	/jointset/ankle_l/ankle_angle_l/accel	/jointset/subtalar_l/subtalar_angle_l/accel	gamma_cid13_p0	gamma_cid13_p1	gamma_cid13_p2	gamma_cid13_p3	gamma_cid13_p4	gamma_cid13_p5	gamma_cid14_p0
1.5	-0.2982320262852691	-0.0504476821707025	0.6710143467852557	1.446918930756737	-0.2478698123830002	-0.005497722255797839	-0.3924257418006364	1.22244326557069	1.222443265570286	0.0302782816191409	0.1745297116242974	0.2896425554931686	0.07990997515831642	0.1465637782046211	0.0692993751095322	0.8669095754302606	-2.56060947052173	-0.07214730790068952	-0.4015028196042537	0.4635453479044088	-3.006570149980223	-3.006570149980213	-0.5139312469933077	-0.0006403500074272796	-0.7481525072138617	-0.3055701719428139	-0.2143197240545289	-0.008178594820554951	-0.01044517005467189	-0.3574121009648629	0.1284221883226943	0.02732211955866282	0.2236180067155154	2.503798660653197	-9.987102086262759	-1.457105930885542	-12.23752887438448	-627.8418903259991	-69.47011465102443	-0.3410520100047862	1.767404759644149	1.237287024408584	-0.2781959566282179	-3.185572094619744	-0.2672793500052618	-1.006965719652515	2.809777763295318	-2.955941202688595	-2.955941202688651	-0.558023958683129	-0.1675896840927137	-1.814908541798489	-0.431916480890799	-3.624159172595419e-07	5.260754203441551e-06	5.049791096750246e-06	1.063297405111407e-06	2.857327982612801e-07	5.373674134000747e-06	-1.235495758246121e-07
1.51	-0.2966788709891217	-0.04969279601548666	0.6796672330421591	1.421157118690697	-0.2486049682068442	-0.009569677764481045	-0.3876498222480926	1.192232973171834	1.192232973171738	0.02511606180298648	0.1745184138939149	0.2820709098130004	0.07683276016656126	0.1640054843814466	0.08168425830206293	0.8634346886672084	-2.59140480533488	-0.07480732603334869	-0.412891762103288	0.4916318948837957	-3.035079234437403	-3.035079234437323	-0.5184232530371263	-0.001719943617763973	-0.7660374558310667	-0.3097035345447867	-0.2086138823559918	-0.008247211133418683	-0.009848865623586349	-0.3490053442035025	0.1290992569845556	0.02716963827076015	0.2182481047005204	3.227857104612107	-10.25976222456494	-1.171357424532008	-12.68890460558063	-619.5092627477547	-68.87363139271704	-0.8209600565234104	1.723272807171754	1.240271571758	-0.4170183888174036	-2.974310276016855	-0.254877046481102	-1.205284789025122	2.80709300715694	-2.737018125850029	-2.737018125839517	-0.3806131774260703	-0.09442810356561462	-1.754174557964747	-0.3802028896643126	-3.289901449547591e-07	5.703677725583328e-06	5.122934586462348e-06	1.09494509272657e-06	3.107905775290147e-07	5.344626708246224e-06	-7.381297805715935e-08
1.52	-0.2949531547791143	-0.0488138245073291	0.6882783937608973	1.395097794056243	-0.2493646270123354	-0.01375560795294799	-0.3825932372573785	1.161749864716682	1.161749864716905	0.0199117570763736	0.1744930634463739	0.2743246373394034	0.07371898020082367	0.1810759609770762	0.09411644569787589	0.8585644677972044	-2.620111984202202	-0.07704790422940211	-0.4242977555621772	0.5196784355390491	-3.061133361239274	-3.061133361239123	-0.5223482290887449	-0.003450893390552387	-0.7830778658996016	-0.3128831667393132	-0.2029080406575207	-0.008315827446286235	-0.009252561192367064	-0.3405985874421364	0.1297763256464263	0.02701715698285557	0.2128782026854594	3.966807343785727	-10.54849011685694	-0.867679709439962	-13.28527106850344	-611.0032027943497	-68.29552818749538	-1.543290354764683	1.69315884340496	1.24674786506508	-0.5572627780186031	-2.767940905454144	-0.1833913626843454	-1.010375911623828	2.801776498468615	-2.464949671626779	-2.464949671626774	-0.4446179602431566	-0.2978609165825882	-1.646000832064445	-0.241170399401764	-2.345754866811105e-07	6.016207231856171e-06	4.572760520921123e-06	1.061566903399649e-06	3.666413515601961e-07	5.042647045548928e-06	2.902691546496368e-08
1.53	-0.2930585635779066	-0.0478104061089484	0.6968339043634167	1.368761841862247	-0.2501451226099018	-0.01805432843033957	-0.3772568712981668	1.131018855100435	1.131018855100582	0.01466879821974032	0.174447745468641	0.2664123205734609	0.07057738177382976	0.1977645856283514	0.1065601618149667	0.8523057754114192	-2.646697411611009	-0.07897293451770865	-0.4354571208735387	0.5475548568326137	-3.084620012039984	-3.084620012039913	-0.5261385043618166	-0.005697694255402338	-0.7992200262010201	-0.3152723738283759	-0.1967626364077751	-0.008532504808733375	-0.008840850385129637	-0.3326226733299535	0.1302842869420843	0.02677919062613317	0.2070793059394537	4.633864608457622	-10.7908724713475	-0.5675368317708888	-13.62210075846656	-602.5002315916296	-67.66764731343288	-2.522423102941741	1.645083499892994	1.242303509006945	-0.6948535381393042	-2.546663870388947	-0.1860206316032214	-1.169904970258713	2.774590024168459	-2.223294998850788	-2.223294998862582	-0.3295769172669517	-0.201463050993765	-1.573254707458513	-0.2144915223604621	-7.536013706554283e-08	6.190193096268276e-06	3.360311552923244e-06	9.590987198217636e-07	4.552096825275397e-07	4.450676881099941e-06	1.882890607264232e-07
1.54	-0.2909994122854075	-0.04668272654460176	0.7053198918282222	1.342171471351797	-0.2509426608642952	-0.02246488018670028	-0.3716429381101481	1.100066424533269	1.100066424533347	0.009391267689122238	0.1743772848063155	0.2583435959888493	0.0674165521442049	0.2139879792357996	0.1189686788910641	0.8446598402544047	-2.670995647491613	-0.08045643559400219	-0.4466640113595577	0.5751918813009058	-3.105417551422996	-3.105417551423003	-0.529262563892002	-0.008479430302558266	-0.8143594296335568	-0.3167294072655127	-0.1906172321580708	-0.008749182171131234	-0.008429139577579681	-0.3246467592177575	0.1307922482377619	0.02654122426947991	0.201280409193402	5.314368885176813	-11.0561232025171	-0.2403213502125721	-14.09898259767525	-593.8375246063542	-67.1097210690609	-3.741807598213053	1.60011263463957	1.239708056866434	-0.8347113322644097	-2.310502599813545	-0.09508552028183163	-1.019880946555451	2.753897133414114	-1.927127388086973	-1.927127388086971	-0.3113748116658458	-0.4048479530436537	-1.445449458288068	-0.05473566901662914	2.911666886227319e-08	6.446146809844817e-06	2.680485666917212e-06	9.067785403340015e-07	5.162945231514192e-07	4.113687868660353e-06	2.979624663108731e-07
1.55	-0.2887803644749747	-0.04543122453387936	0.7137226186695622	1.315349396479577	-0.2517530977164327	-0.02698737471009588	-0.3657543134186337	1.068919584787367	1.068919584787396	0.004084800888864126	0.1742769463917583	0.2501286654677478	0.06424539002226122	0.2297292086743735	0.131314623829913	0.8356638675512602	-2.693023683111385	-0.08156838367598086	-0.4577753802243098	0.6024593261708041	-3.123477037210479	-3.123477037210445	-0.5320075032548551	-0.01166923408201006	-0.828439889906761	-0.3173691885997693	-0.1840412063717862	-0.009686574719546388	-0.008142308756694673	-0.3174931803913018	0.1315231233824358	0.02646419914239998	0.1951167965416949	6.04363958623405	-11.42709416445344	0.1349197016212564	-14.45106300604608	-585.5081360706113	-66.89375676547721	-5.197452246767556	1.547304498803492	1.229655852987039	-0.965176897184171	-2.089573946651485	-0.1106460384914544	-1.147317172548224	2.702108539065922	-1.674431030032553	-1.674431030026439	-0.251511115039689	-0.2887604342568433	-1.361045861528642	-0.04993977424182826	7.052515271507458e-08	6.796541740936899e-06	2.614334201466971e-06	9.122375829500733e-07	5.457136031621789e-07	4.070481487883754e-06	3.505010196587716e-07
1.56	-0.2864066690900911	-0.04405673944565001	0.7220287584523019	1.288318917270435	-0.2525729333666608	-0.03161909338535204	-0.3595952262033646	1.037606335812413	1.037606335812375	-0.001248206828295896	0.1741421671706287	0.2417785900339762	0.06107156200525271	0.244917494126441	0.1435652943924532	0.8253424285343263	-2.712676514874856	-0.08233619521138354	-0.4685088417335866	0.6292843860522365	-3.138699397236108	-3.138699397236033	-0.5345707472754976	-0.01536759161590054	-0.8413884121676469	-0.3172625862784897	-0.1774651805855367	-0.01062396726794417	-0.007855477935677611	-0.3103396015648415	0.1322539985271205	0.02638717401534821	0.1889531838899497	6.788062820686326	-11.82001660550064	0.5356987396231607	-14.94539350307185	-576.9801124801987	-66.74910272999026	-6.892603266396622	1.489523837338305	1.220653181604725	-1.099804595022317	-1.835461828553358	-0.02625821096666179	-0.9442994754604276	2.665420135720904	-1.359702235716402	-1.359702235716401	-0.2750357432236789	-0.5065587039313659	-1.219061855824381	0.094541062090642	-4.373190123862052e-08	7.043184262287886e-06	3.77914343310829e-06	1.051723419856227e-06	4.258625367777719e-07	4.135725553871194e-06	2.811342290748602e-07
1.57	-0.2838840446201796	-0.04256043175657415	0.7302250906984914	1.261104401085196	-0.2533975144040715	-0.03635977294549048	-0.3531703038447526	1.006155535621269	1.006155535621261	-0.0066012006701592	0.1739686821973507	0.2333051808314892	0.05790410324989371	0.2595078358862187	0.1556557563838262	0.813712709910289	-2.729798361743002	-0.08252357288566006	-0.4795437777764726	0.6555839124248889	-3.150959359356865	-3.15095935935675	-0.5360316086717435	-0.01937772286981447	-0.8531037376876717	-0.3161205064398039	-0.1708594384516737	-0.01061414027292553	-0.007830819359009596	-0.3032682338999881	0.1323154680004702	0.02555205412104699	0.1826559042428904	7.244175259537104	-11.78831193408908	0.8174956324364182	-14.93351115232375	-568.7266649139177	-65.74225714276203	-8.825569361699465	1.428846861320503	1.197476754390005	-1.226263517223708	-1.586317544702965	-0.008181039474091899	-1.170714667611671	2.594792901210569	-1.083937297413317	-1.083937297407166	-0.0809586257325223	-0.3571173308800067	-1.118997104051933	0.1382428242748827	-3.525708774504343e-07	7.160136271462503e-06	6.482653536114044e-06	1.358742749624983e-06	1.194237873994084e-07	4.336532678313683e-06	5.938575857618778e-08
1.58	-0.2812185052294669	-0.04094437263828738	0.7382987841542147	1.233731512145517	-0.2542226099169886	-0.04120832666584814	-0.3464858714197815	0.974597176989493	0.9745971769895082	-0.01196867258356367	0.1737533205125581	0.224720372533009	0.05475090556882509	0.2735004782869228	0.1675155802346335	0.8008146704410734	-2.744351065761459	-0.08243909031255986	-0.4900836737757176	0.6811863993244723	-3.160211085363939	-3.160211085363782	-0.5374663615842963	-0.02374293391407212	-0.8636682313661131	-0.3144103714204254	-0.1642536963178678	-0.01060431327795638	-0.007806160782313673	-0.2961968662351394	0.1323769374738131	0.02471693422668201	0.1763586245957792	7.705852172080982	-11.76454106047883	1.108496231732587	-14.99874776026853	-560.4192422848512	-64.73384380135774	-10.86979247338277	1.369983965523571	1.174525553491592	-1.353468764057997	-1.321633258615431	0.028113838508669	-0.8452914667322508	2.526012241107076	-0.7580550129796322	-0.7580550129796368	-0.2698140464850325	-0.577574662000126	-0.9888954875077146	0.2081520982292192	-5.518966036052738e-07	6.95195197863963e-06	8.095705821879275e-06	1.516261502565432e-06	-1.058017100108489e-07	4.1583860473703e-06	-9.047564774474081e-08
1.59	-0.2784162549104885	-0.0392109149203636	0.7462373077872295	1.206226229406573	-0.2550447820949076	-0.04615979773956151	-0.3395490941138002	0.9429617617757244	0.9429617617757424	-0.01734928909998239	0.1734920363083554	0.2160362464548748	0.05161858722564047	0.2868258822376543	0.1791287713180602	0.7866973305711041	-2.756253954190361	-0.081926815859673	-0.500170717749483	0.7060273285876286	-3.16635107854794	-3.166351078547826	-0.5385912675769629	-0.02853439625240581	-0.8729367333812811	-0.3119352520735688	-0.1571896779578265	-0.01137949302625296	-0.008046455764284647	-0.2900852829610716	0.1332470947874	0.02433011792765491	0.1697494759303842	8.415196003176188	-12.00077317721846	1.466019721935193	-15.22406132657044	-552.6307462120108	-64.37443828451639	-12.91973135177765	1.295247145756236	1.147925849993546	-1.46983330690084	-1.056924617762107	0.07137817663035276	-1.084755791394358	2.441873276245566	-0.4638048559563881	-0.4638048559627555	-0.02288714214605014	-0.4346346056193029	-0.8625156697077611	0.2829777517236631	-6.025972046827988e-07	6.302511275963044e-06	8.228851069961023e-06	1.470886615524619e-06	-2.208092226072536e-07	3.465945034117545e-06	-1.427760383958796e-07
